<?xml version="1.0"?>
<svg width="277.338" height="277.338" xmlns="http://www.w3.org/2000/svg" xmlns:svg="http://www.w3.org/2000/svg" version="1.1" xml:space="preserve">
 <g class="layer">
  <title>Layer 1</title>
  <g id="svg_1">
   <path d="m19.22,43.66l0,186.02c0,25.22 16.71,45.66 37.33,45.66c20.61,0 37.34,-20.44 37.34,-45.66l0,-186.02c0,-25.21 -16.73,-45.65 -37.34,-45.65c-20.62,-0.01 -37.33,20.44 -37.33,45.65z" fill="#ffffff" id="svg_2"/>
   <path d="m230.78,-2c-20.61,0 -37.33,20.45 -37.33,45.66l0,186.01c0,25.22 16.72,45.65 37.33,45.65s37.34,-20.43 37.34,-45.65l0,-186.01c-0.01,-25.21 -16.73,-45.66 -37.34,-45.66z" fill="#ffffff" id="svg_3"/>
  </g>
 </g>
</svg>